<?xml version="1.0" encoding="utf-8"?>
<!-- Generator: Adobe Illustrator 27.9.0, SVG Export Plug-In . SVG Version: 6.00 Build 0)  -->
<svg version="1.1" id="Layer_1" xmlns="http://www.w3.org/2000/svg" xmlns:xlink="http://www.w3.org/1999/xlink" x="0px" y="0px"
	 viewBox="0 0 117.619 28.865" style="enable-background:new 0 0 117.619 28.865;" xml:space="preserve">
<style type="text/css">
	.st0{fill:#003478;}
	.st1{fill:#0076DD;}
</style>
<g>
	<g>
		<path class="st0" d="M8.667,0.203c0,0,1.696,0.006,2.386,1.228c0,0,0.143,0.217,0.223,0.514c0,0,0.223,0.611-0.023,1.519
			c0,0-0.091,0.308-0.177,0.52L0,28.67h11.099c0,0,1.001,0.045,1.918-0.171c0,0,1.542-0.228,3.585-1.633
			c0,0,1.416-0.948,2.409-2.501c0,0,0.388-0.571,0.662-1.279l6.851-15.278c0,0,0.788-1.564,0.56-3.517c0,0-0.206-2.09-2.147-3.209
			c0,0-0.988-0.774-2.957-0.856L8.667,0.203z"/>
		<path class="st1" d="M52.446,0.203H39.315h-0.662c0,0-2.409-0.048-4.47,0.966c0,0-2.486,1.145-3.649,3.704l-8.947,20.21
			c0,0-0.474,1.074-1.067,1.805c0,0-1.153,1.553-3.3,1.793h13.714c0,0,2.626,0.114,4.933-1.382c0,0,2.405-1.464,3.311-3.414
			L48.61,2.932c0,0,0.411-1.153,1.61-1.895C50.219,1.037,51.304,0.26,52.446,0.203z"/>
	</g>
	<path class="st0" d="M56.318,19.851c-0.034-0.42-0.19-0.747-0.469-0.982c-0.279-0.235-0.702-0.352-1.268-0.352
		c-0.361,0-0.656,0.043-0.884,0.129c-0.229,0.086-0.398,0.202-0.507,0.349s-0.166,0.315-0.17,0.504
		c-0.008,0.155,0.02,0.295,0.085,0.419s0.169,0.235,0.312,0.334s0.325,0.188,0.548,0.268c0.222,0.08,0.487,0.151,0.793,0.214
		l1.057,0.227c0.713,0.151,1.324,0.35,1.831,0.598s0.923,0.538,1.246,0.872c0.323,0.334,0.561,0.708,0.715,1.123
		c0.153,0.416,0.232,0.869,0.236,1.359c-0.004,0.848-0.216,1.565-0.636,2.153c-0.42,0.587-1.018,1.034-1.797,1.341
		c-0.778,0.306-1.713,0.459-2.804,0.459c-1.12,0-2.097-0.166-2.93-0.497s-1.479-0.842-1.939-1.533
		c-0.459-0.69-0.691-1.574-0.695-2.653h3.323c0.021,0.394,0.12,0.726,0.296,0.994c0.176,0.269,0.425,0.472,0.746,0.611
		c0.321,0.138,0.704,0.208,1.148,0.208c0.373,0,0.686-0.046,0.938-0.138c0.252-0.092,0.442-0.22,0.573-0.384s0.197-0.35,0.201-0.56
		c-0.004-0.197-0.068-0.37-0.192-0.519c-0.124-0.149-0.326-0.283-0.607-0.403c-0.281-0.119-0.661-0.232-1.139-0.337l-1.283-0.28
		c-1.141-0.248-2.04-0.662-2.697-1.243s-0.983-1.375-0.979-2.382c-0.004-0.818,0.215-1.535,0.658-2.149
		c0.442-0.615,1.057-1.094,1.844-1.438c0.787-0.344,1.69-0.516,2.709-0.516c1.041,0,1.941,0.174,2.7,0.522
		c0.759,0.348,1.346,0.838,1.759,1.47c0.413,0.631,0.622,1.369,0.626,2.212C59.666,19.851,56.318,19.851,56.318,19.851z"/>
	<path class="st0" d="M68.22,15.823h3.499v8.257c0,0.982-0.234,1.83-0.702,2.546c-0.468,0.715-1.119,1.267-1.954,1.655
		s-1.804,0.582-2.908,0.582c-1.112,0-2.085-0.194-2.92-0.582s-1.484-0.94-1.948-1.655s-0.695-1.564-0.695-2.546v-8.257h3.499v7.955
		c0,0.399,0.088,0.754,0.265,1.067c0.176,0.313,0.421,0.557,0.733,0.733c0.312,0.176,0.668,0.264,1.067,0.264
		c0.403,0,0.759-0.088,1.07-0.264c0.31-0.176,0.554-0.421,0.73-0.733s0.265-0.668,0.265-1.067v-7.955H68.22z"/>
	<g>
		<path class="st0" d="M80.701,16.389c-0.718-0.378-1.555-0.566-2.511-0.566h-5.564v12.89h3.499v-3.827h1.939
			c0.982,0,1.841-0.183,2.577-0.548s1.309-0.885,1.718-1.561c0.409-0.676,0.613-1.475,0.613-2.398c0-0.915-0.199-1.714-0.598-2.398
			C81.976,17.298,81.418,16.767,80.701,16.389z M79.086,21.33c-0.157,0.269-0.382,0.475-0.673,0.62
			c-0.292,0.145-0.643,0.217-1.054,0.217h-1.234v-3.55h1.234c0.411,0,0.762,0.07,1.054,0.211s0.516,0.342,0.673,0.604
			s0.236,0.578,0.236,0.947C79.322,20.745,79.244,21.061,79.086,21.33z"/>
		<path class="st0" d="M93.508,17.982c-0.399-0.684-0.957-1.215-1.674-1.592c-0.718-0.378-1.555-0.566-2.511-0.566h-5.564v12.89
			h3.499v-3.826l1.939,0.001c0.982,0,1.841-0.183,2.577-0.548s1.309-0.888,1.718-1.563c0.409-0.676,0.613-1.475,0.613-2.398
			C94.106,19.465,93.907,18.666,93.508,17.982z M90.22,21.33c-0.157,0.269-0.382,0.475-0.673,0.62
			c-0.292,0.145-0.643,0.217-1.054,0.217h-1.234v-3.55h1.234c0.411,0,0.762,0.07,1.054,0.211s0.516,0.342,0.673,0.604
			s0.236,0.578,0.236,0.947C90.456,20.745,90.377,21.061,90.22,21.33z"/>
	</g>
	<path class="st0" d="M94.765,28.715v-12.89l3.499-0.002v10.072h5.211v2.817L94.765,28.715z"/>
	<path class="st0" d="M99.876,15.823h3.902l2.517,5.236h0.101l2.518-5.236h3.902l-4.733,8.839v4.051h-3.474v-4.051L99.876,15.823z"
		/>
	<path class="st0" d="M55.19,13.067h-5.035l5.096-12.89h4.834c1.326,0,2.372,0.266,3.14,0.799c0.767,0.533,1.224,1.294,1.37,2.285
		c0.146,0.99-0.051,2.169-0.591,3.537c-0.521,1.317-1.22,2.444-2.1,3.38c-0.879,0.936-1.891,1.651-3.035,2.146
		C57.726,12.82,56.499,13.067,55.19,13.067z M54.827,10.097h1.272c0.638,0,1.233-0.112,1.786-0.337
		c0.553-0.224,1.059-0.602,1.518-1.133c0.46-0.531,0.87-1.258,1.233-2.181c0.343-0.873,0.493-1.547,0.452-2.023
		c-0.042-0.476-0.254-0.808-0.634-0.994c-0.381-0.187-0.907-0.28-1.579-0.28h-1.296L54.827,10.097z"/>
	<path class="st0" d="M71.428,0.178l-5.096,12.89h-3.499l5.096-12.89C67.929,0.178,71.428,0.178,71.428,0.178z"/>
	<path class="st0" d="M82.274,2.204c-0.139-0.655-0.499-1.156-1.078-1.504s-1.347-0.522-2.303-0.522h-5.564l-5.096,12.89h3.499
		l1.686-4.255h1.206l0.581,4.255h3.802l-0.719-4.814c0.796-0.323,1.505-0.773,2.12-1.363c0.659-0.631,1.17-1.409,1.532-2.332
		C82.302,3.643,82.413,2.859,82.274,2.204z M78.291,4.558c-0.144,0.369-0.338,0.666-0.582,0.891s-0.534,0.388-0.868,0.491
		s-0.706,0.154-1.118,0.154h-1.227l1.237-3.122h1.234c0.403,0,0.728,0.056,0.975,0.167s0.403,0.283,0.467,0.516
		C78.474,3.888,78.435,4.189,78.291,4.558z"/>
	<path class="st0" d="M79.828,13.067l5.096-12.89h9.29l-1.125,2.82h-5.79l-0.861,2.215h5.312l-1.125,2.82h-5.312l-0.861,2.215h5.765
		l-1.125,2.82C89.092,13.067,79.828,13.067,79.828,13.067z"/>
	<path class="st0" d="M105.198,5.011h-3.499c0.093-0.298,0.138-0.566,0.134-0.806c-0.004-0.239-0.057-0.446-0.16-0.62
		c-0.103-0.174-0.259-0.307-0.468-0.4c-0.21-0.092-0.474-0.139-0.793-0.139c-0.613,0-1.195,0.152-1.747,0.456
		s-1.052,0.739-1.501,1.303c-0.448,0.564-0.829,1.237-1.142,2.017c-0.291,0.755-0.438,1.383-0.441,1.882
		c-0.003,0.5,0.131,0.873,0.404,1.12c0.272,0.248,0.673,0.371,1.202,0.371c0.352,0,0.686-0.042,1.001-0.126s0.607-0.204,0.876-0.362
		c0.269-0.157,0.512-0.346,0.728-0.566c0.216-0.22,0.399-0.465,0.549-0.733h3.524c-0.259,0.545-0.626,1.103-1.101,1.671
		c-0.474,0.569-1.039,1.091-1.693,1.567c-0.655,0.476-1.385,0.861-2.191,1.155s-1.67,0.44-2.593,0.44
		c-1.208,0-2.189-0.264-2.943-0.793s-1.21-1.301-1.369-2.316c-0.16-1.015,0.046-2.253,0.615-3.713
		c0.558-1.41,1.293-2.591,2.204-3.543s1.917-1.67,3.017-2.152C98.912,0.241,100.02,0,101.136,0c0.843,0,1.574,0.111,2.192,0.334
		s1.108,0.546,1.47,0.972s0.581,0.949,0.657,1.57C105.53,3.499,105.445,4.21,105.198,5.011z"/>
	<path class="st0" d="M105.57,0.178c0.552,0.58,1.163,1.511,1.208,2.82h2.39l-3.971,10.07h3.449l3.971-10.07h3.877l1.125-2.82
		C117.619,0.178,105.57,0.178,105.57,0.178z"/>
	<path class="st0" d="M110.649,28.705c-0.783,0-1.414-0.634-1.414-1.416c0-0.784,0.631-1.414,1.414-1.414
		c0.784,0,1.417,0.63,1.417,1.414C112.066,28.072,111.433,28.705,110.649,28.705z M110.649,26.109c-0.653,0-1.179,0.527-1.179,1.18
		s0.526,1.183,1.179,1.183s1.183-0.531,1.183-1.183C111.832,26.636,111.301,26.109,110.649,26.109z M110.031,26.551h0.673
		c0.376,0,0.503,0.234,0.503,0.399c0,0.246-0.177,0.423-0.434,0.439v0.008c0.13,0.046,0.225,0.177,0.353,0.381l0.185,0.295h-0.301
		l-0.135-0.237c-0.191-0.342-0.264-0.408-0.452-0.408h-0.147v0.645h-0.245L110.031,26.551L110.031,26.551z M110.629,27.215
		c0.19,0,0.316-0.073,0.316-0.23c0-0.138-0.112-0.226-0.274-0.226h-0.396v0.456H110.629z"/>
	<g>
		<g>
			<path class="st0" d="M39.22,26.893v0.233h-0.556v1.589H38.39v-1.589h-0.557v-0.233H39.22z M40.985,28.715l-0.074-1.098
				c-0.008-0.143,0-0.317-0.003-0.496h-0.014c-0.048,0.17-0.102,0.363-0.156,0.523l-0.381,1.048h-0.208l-0.372-1.075
				c-0.048-0.146-0.093-0.326-0.134-0.496h-0.015c-0.003,0.176,0,0.331-0.008,0.496l-0.069,1.098h-0.266l0.143-1.822h0.361
				l0.359,0.989c0.045,0.138,0.08,0.289,0.126,0.459h0.01c0.041-0.17,0.083-0.33,0.128-0.463l0.357-0.985h0.359l0.137,1.822
				C41.265,28.715,40.985,28.715,40.985,28.715z"/>
		</g>
	</g>
</g>
</svg>
